<?xml version="1.0" encoding="UTF-8"?>
<svg width="32px" height="24px" viewBox="0 0 32 24" version="1.1" xmlns="http://www.w3.org/2000/svg">
    <g stroke="none" fill="#667eea">
        <!-- Body -->
        <ellipse cx="16" cy="16" rx="8" ry="6"/>
        <!-- Head -->
        <circle cx="22" cy="13" r="4"/>
        <!-- Ear -->
        <path d="M20,13 C20,13 19,6 20,5 C21,4 23,7 22,8 L20,13 Z"/>
        <!-- Front Legs (Running Position 1) -->
        <rect x="19" y="20" width="2" height="4" rx="1" transform="rotate(30, 20, 20)"/>
        <rect x="22" y="20" width="2" height="4" rx="1" transform="rotate(-30, 23, 20)"/>
        <!-- Back Legs -->
        <rect x="13" y="20" width="2" height="4" rx="1" transform="rotate(15, 14, 20)"/>
        <rect x="10" y="20" width="2" height="4" rx="1" transform="rotate(-15, 11, 20)"/>
        <!-- Tail -->
        <circle cx="9" cy="14" r="2"/>
        <!-- Eye -->
        <circle cx="23" cy="12" r="0.5" fill="#ffffff"/>
    </g>
</svg>
